<?xml version="1.0" encoding="UTF-8" standalone="no"?>
<svg
   id="Layer_1"
   data-name="Layer 1"
   viewBox="0 0 500 500"
   version="1.1"
   sodipodi:docname="Origin_Jumpworks_Logo_2.svg"
   inkscape:version="1.2.1 (9c6d41e410, 2022-07-14)"
   width="500"
   height="500"
   xml:space="preserve"
   xmlns:inkscape="http://www.inkscape.org/namespaces/inkscape"
   xmlns:sodipodi="http://sodipodi.sourceforge.net/DTD/sodipodi-0.dtd"
   xmlns="http://www.w3.org/2000/svg"
   xmlns:svg="http://www.w3.org/2000/svg"><defs
     id="defs436"><linearGradient
       id="a"
       gradientUnits="userSpaceOnUse"
       x1="397.63181"
       y1="156.4321"
       x2="397.63181"
       y2="-143.5679"
       gradientTransform="matrix(0.8,0,0,-0.8,44.4947,40.9746)"><stop
         offset="0"
         stop-color="#24c2ff"
         id="stop4" /><stop
         offset="1"
         stop-color="#00b7ff"
         id="stop6" /></linearGradient></defs><sodipodi:namedview
     id="namedview434"
     pagecolor="#ffffff"
     bordercolor="#000000"
     borderopacity="0.25"
     inkscape:showpageshadow="2"
     inkscape:pageopacity="0.0"
     inkscape:pagecheckerboard="0"
     inkscape:deskcolor="#d1d1d1"
     showgrid="false"
     inkscape:zoom="0.92159584"
     inkscape:cx="456.27376"
     inkscape:cy="324.97977"
     inkscape:window-width="1920"
     inkscape:window-height="1012"
     inkscape:window-x="0"
     inkscape:window-y="0"
     inkscape:window-maximized="1"
     inkscape:current-layer="g263" /><g
     id="g263"
     transform="translate(-190,162.63912)"><g
       id="g327"
       transform="matrix(-0.55714567,1.4255986,1.3945111,0.56956599,353.3305,-609.4366)"
       style="fill:#0fbbff;fill-opacity:1"><path
         d="m 434.513,190.17 a 11.253,11.253 0 1 0 -11.252,11.1 11.174,11.174 0 0 0 11.252,-11.095"
         id="path387"
         style="fill:#0fbbff;fill-opacity:1" /><path
         d="m 439.345,207.791 a 5.067,5.067 0 1 0 -5.068,5 5.033,5.033 0 0 0 5.068,-5"
         id="path389"
         style="fill:#0fbbff;fill-opacity:1" /><path
         d="m 282.829,194.438 c 0,0 61.676,-53.559 127.665,-70.837 76.6,-20.058 110.789,21.977 110.789,21.977 0,0 -42.558,-26.541 -104.3,-14.51 -73.353,14.295 -134.156,63.37 -134.156,63.37"
         id="path391"
         style="fill:#0fbbff;fill-opacity:1" /><path
         d="m 442.519,108.664 c 0,0 -75.534,-17.908 -152.219,41.927 C 213.586,210.439 190,317.335 190,317.335 c 0,0 26.094,-84.535 112.627,-149.141 64.591,-48.222 139.892,-59.53 139.892,-59.53"
         id="path393"
         style="fill:#0fbbff;fill-opacity:1" /><path
         d="m 473.625,209.572 c -2.543,38.817 -47.653,69.554 -91.538,69.554 -36.448,0 -65.547,-27.5 -55.66,-62.963 12.039,-43.166 60.461,-57.945 83.348,-59.155 28.832,-1.528 66.392,13.747 63.85,52.564 M 415.9,152.4 c -26.29,1.391 -81.92,18.368 -95.75,67.962 -11.35,40.738 22.076,72.33 63.95,72.33 50.416,0 102.242,-35.311 105.161,-79.9 C 492.18,168.203 449.027,150.646 415.9,152.4"
         id="path395"
         style="fill:#0fbbff;fill-opacity:1" /><path
         d="m 436.677,135.164 c 0,0 103.214,1.6 77.573,76.58 -26.889,78.629 -118.25,105.591 -165.532,103.992 -48.334,-1.636 -69.135,-17.6 -69.135,-17.6 0,0 51.716,61.236 168.453,-0.961 82.9,-44.166 99.319,-110.737 74.966,-137.246 -22.656,-24.664 -86.325,-24.762 -86.325,-24.762"
         id="path397"
         style="fill:#0fbbff;fill-opacity:1" /><path
         d="m 317.913,176.3 c 0,0 -39.67,46.186 -35.084,83.639 5.787,47.259 80.928,47.369 80.928,47.369 0.792,0.032 -92.093,0.034 -96.4,-43.1 -4.219,-42.265 50.555,-87.908 50.555,-87.908"
         id="path399"
         style="fill:#0fbbff;fill-opacity:1" /><path
         d="m 357.481,334.939 c -7.139,1.058 99.86,-14.987 166.507,-78.922 C 590.849,191.878 610,126.588 610,126.588 c 0,0 -23.713,98.64 -78.24,148.821 -87.294,80.333 -174.279,59.53 -174.279,59.53"
         id="path401"
         style="fill:#0fbbff;fill-opacity:1" /></g></g></svg>
