<?xml version="1.0" encoding="UTF-8" standalone="no"?>
<svg
   version="1.0"
   width="15"
   height="15"
   viewBox="0 0 11.25 11.25"
   preserveAspectRatio="xMidYMid"
   id="svg6"
   sodipodi:docname="list_icon.svg"
   inkscape:version="1.2.1 (9c6d41e410, 2022-07-14)"
   xmlns:inkscape="http://www.inkscape.org/namespaces/inkscape"
   xmlns:sodipodi="http://sodipodi.sourceforge.net/DTD/sodipodi-0.dtd"
   xmlns="http://www.w3.org/2000/svg"
   xmlns:svg="http://www.w3.org/2000/svg">
  <defs
     id="defs10" />
  <sodipodi:namedview
     id="namedview8"
     pagecolor="#ffffff"
     bordercolor="#000000"
     borderopacity="0.25"
     inkscape:showpageshadow="2"
     inkscape:pageopacity="0.0"
     inkscape:pagecheckerboard="0"
     inkscape:deskcolor="#d1d1d1"
     inkscape:document-units="pt"
     showgrid="false"
     inkscape:zoom="36.65625"
     inkscape:cx="8.3614663"
     inkscape:cy="9.1526002"
     inkscape:window-width="1920"
     inkscape:window-height="1012"
     inkscape:window-x="0"
     inkscape:window-y="0"
     inkscape:window-maximized="1"
     inkscape:current-layer="svg6" />
  <g
     transform="matrix(2.5540027e-5,0.00220314,0.00220314,-2.5540027e-5,-0.04158554,0.01749171)"
     fill="#000000"
     stroke="none"
     id="g4"
     style="fill:#0f0f0f;fill-opacity:1">
    <path
       d="m 2422,4845 c -112,-25 -208,-80 -297,-170 l -80,-81 -982,-1704 C 524,1952 72,1166 60,1142 28,1077 0,955 0,880 0,797 29,679 72,592 119,496 240,377 341,327 c 147,-72 -5,-68 2247,-65 1940,3 2029,4 2082,21 318,107 501,412 436,724 -8,37 -22,84 -30,103 -32,74 -1996,3468 -2038,3520 -64,80 -167,154 -268,191 -104,38 -246,48 -348,24 z"
       id="path2"
       style="fill:#0f0f0f;fill-opacity:1" />
  </g>
</svg>
