<?xml version="1.0" encoding="UTF-8" standalone="no"?>
<svg
   viewBox="0 0 800 300"
   version="1.1"
   id="svg13"
   sodipodi:docname="Origin_Jumpworks_Logo.svg"
   width="800"
   height="300"
   inkscape:version="1.2.1 (9c6d41e410, 2022-07-14)"
   xmlns:inkscape="http://www.inkscape.org/namespaces/inkscape"
   xmlns:sodipodi="http://sodipodi.sourceforge.net/DTD/sodipodi-0.dtd"
   xmlns="http://www.w3.org/2000/svg"
   xmlns:svg="http://www.w3.org/2000/svg">
  <defs
     id="defs17">
    <linearGradient
       id="a"
       gradientUnits="userSpaceOnUse"
       x1="397.63181"
       y1="156.4321"
       x2="397.63181"
       y2="-143.5679"
       gradientTransform="matrix(0.8,0,0,-0.8,44.4947,40.9746)">
      <stop
         offset="0"
         stop-color="#24c2ff"
         id="stop4" />
      <stop
         offset="1"
         stop-color="#00b7ff"
         id="stop6" />
    </linearGradient>
  </defs>
  <sodipodi:namedview
     id="namedview15"
     pagecolor="#ffffff"
     bordercolor="#000000"
     borderopacity="0.25"
     inkscape:showpageshadow="2"
     inkscape:pageopacity="0.0"
     inkscape:pagecheckerboard="0"
     inkscape:deskcolor="#d1d1d1"
     showgrid="false"
     inkscape:zoom="0.92159584"
     inkscape:cx="397.13721"
     inkscape:cy="311.95887"
     inkscape:window-width="1920"
     inkscape:window-height="1012"
     inkscape:window-x="0"
     inkscape:window-y="0"
     inkscape:window-maximized="1"
     inkscape:current-layer="svg13" />
  <g
     transform="matrix(1.2930338,0,0,1.2930338,-69.823825,103.20026)"
     id="g11">
    <path
       d="M 255.4,-78.4 C 162.5,-77.8 81,3.5 55.3,116.1 96.5,10.6 175.5,-54.4 284.6,-76 c -9.8,-1.7 -19.5,-2.5 -29.2,-2.4 z m 37.1,11.5 C 233,-67.6 166.6,-24.2 138.6,3 197,-38.6 281.1,-81.3 350.7,-44.4 c 1.7,0.9 3.3,2 5.2,2.6 -0.8,-1.7 -2.3,-2.9 -3.6,-4.1 -17.7,-14.7 -38.3,-20.7 -59.8,-21 z m 143.6,6.6 c -11.2,31 -25.2,55 -44.2,80.2 H 405 c 14.1,-25.3 24,-51.9 31.1,-80.2 z m -156.4,9.2 c 37.6,1 88.1,16.2 69.4,71 h 11.3 c 24.7,-57.7 -35.1,-70.4 -80.7,-71 z m -14.8,15.2 c -13.6,-0.1 -27.8,2.9 -41,8.8 -40.7,18 -62.7,57.6 -49.1,88.5 13.6,30.9 57.7,41.4 98.4,23.5 7.1,-3.1 13.8,-7 19.9,-11.6 l 4.2,-23.7 c -8.2,9.7 -19.2,17.8 -31.7,23.3 -35.6,15.7 -74,6.8 -85.7,-19.8 -11.7,-26.6 7.6,-61 43.2,-76.7 35.6,-15.7 74,-6.8 85.7,19.8 3.6,8.1 4.3,17.2 2.3,26.5 l 0.2,-0.2 c 2.5,-1.8 4.8,-2.7 6.9,-2.7 h 7.8 c 0.7,-8.3 -0.6,-16.3 -3.8,-23.6 -8.4,-19.1 -29,-31.2 -54.7,-32.2 -0.7,0.1 -1.6,0.1 -2.6,0.1 z M 170.7,-13 C 116.6,36.4 92.4,97.9 199.3,105.7 120.1,94.1 126.3,44.8 170.7,-13 Z m 95.8,2.3 c -5.4,0 -9.7,4.3 -9.7,9.7 0,5.4 4.3,9.7 9.7,9.7 5.4,0 9.7,-4.3 9.7,-9.7 0,-5.3 -4.4,-9.7 -9.7,-9.7 z m 10,21.8 c -2.5,0 -4.5,2 -4.5,4.5 0,2.5 2,4.5 4.5,4.5 2.5,0 4.5,-2 4.5,-4.5 0.1,-2.4 -2,-4.5 -4.5,-4.5 z m 46.3,16.8 c -2.2,0 -4.5,0.9 -6.9,2.7 l -3.7,2.7 c -2.5,1.8 -3.9,4 -4.4,6.7 l -12.4,69.6 c -0.5,2.7 0.2,4.9 2,6.7 l 2.8,2.7 c 1.8,1.8 3.8,2.7 6,2.7 h 49.3 c 2.2,0 4.5,-0.9 6.9,-2.7 l 3.7,-2.7 c 2.5,-1.8 3.9,-4 4.4,-6.7 L 382.9,40 c 0.5,-2.7 -0.2,-4.9 -2,-6.7 l -2.8,-2.7 c -1.8,-1.8 -3.8,-2.7 -6,-2.7 z m 75.1,0 -16.7,93.7 h 11.3 l 6.7,-37.5 h 19.4 l 12.9,28.5 c 0.9,2.1 2.2,3.9 3.9,5.2 l 2.3,1.7 c 1.3,1 2.1,1.6 2.7,1.7 0.6,0.2 1.7,0.3 3.3,0.3 h 3.4 l 0.9,-5.2 c 0.4,-2.1 0.5,-3.3 0.3,-3.9 -0.2,-0.5 -1,-1.2 -2.5,-2.1 l -1.3,-0.8 c -1.3,-0.8 -2.1,-1.4 -2.5,-1.7 -0.3,-0.4 -0.8,-1.4 -1.5,-2.9 L 430.4,83.5 h 7.5 c 2.2,0 4.4,-0.8 6.6,-2.4 l 3.9,-2.8 c 2.6,-1.9 4.1,-4.2 4.6,-7 L 458.6,40 c 0.5,-2.7 -0.2,-4.9 -2,-6.7 l -2.8,-2.7 c -1.8,-1.8 -3.8,-2.7 -6,-2.7 z m 76.7,0 -16.7,93.7 h 11.3 l 16.7,-93.7 z m 36.9,0 c -2.2,0 -4.5,0.9 -6.9,2.7 l -3.7,2.7 c -2.5,1.8 -3.9,4 -4.4,6.7 l -12.4,69.6 c -0.5,2.7 0.2,4.9 2,6.7 l 2.8,2.7 c 1.8,1.8 3.8,2.7 6,2.7 H 538 c 2.2,0 4.5,-0.9 6.9,-2.7 l 3.7,-2.7 c 2.5,-1.8 3.9,-4 4.4,-6.7 l 6.4,-36.1 h -31.8 l -1.7,9.4 h 20.5 l -4.3,24 c -0.2,1.3 -0.5,2.2 -0.7,2.7 -0.2,0.4 -0.7,0.8 -1.6,1.5 -0.9,0.6 -1.6,1 -2.1,1.2 -0.5,0.1 -1.5,0.1 -3.1,0.1 h -33.1 c -1.6,0 -2.6,0 -3.1,-0.1 -0.4,-0.2 -1,-0.6 -1.7,-1.2 -0.7,-0.6 -1.1,-1.1 -1.2,-1.5 0,-0.4 0.1,-1.3 0.3,-2.7 l 11.4,-64 c 0.2,-1.3 0.4,-2.2 0.6,-2.5 0.3,-0.4 0.8,-1 1.8,-1.6 0.9,-0.6 1.6,-1 2.1,-1.1 0.5,-0.2 1.5,-0.3 3.1,-0.3 H 548 c 1.6,0 2.6,0.1 3.1,0.3 0.4,0.1 1,0.4 1.7,1.1 0.7,0.6 1.1,1.2 1.1,1.6 0.1,0.4 0.1,1.2 -0.2,2.5 l -0.5,2.5 h 11.3 l 1,-5.4 c 0.5,-2.7 -0.2,-4.9 -2,-6.7 l -2.8,-2.7 c -1.8,-1.8 -3.8,-2.7 -6,-2.7 z m 65.6,0 -16.7,93.7 h 11.3 l 16.7,-93.7 z m 24.1,0 -16.7,93.7 h 11.3 L 608,52.9 c 0.4,-2.1 0.4,-4.3 0.2,-6.4 l 0.4,-0.1 35.9,75.2 H 656 L 672.7,27.9 H 661.4 L 649,97.7 c -0.4,2.1 -0.4,4.3 -0.2,6.4 l -0.4,0.1 -35.8,-76.3 z m -275.1,9.3 h 39.3 c 1.6,0 2.6,0.1 3.1,0.3 0.4,0.1 1,0.4 1.7,1.1 0.7,0.6 1.1,1.2 1.1,1.6 0.1,0.4 0.1,1.2 -0.2,2.5 l -11.4,64 c -0.2,1.3 -0.5,2.2 -0.7,2.7 -0.2,0.4 -0.7,0.8 -1.6,1.5 -0.9,0.6 -1.6,1 -2.1,1.2 -0.5,0.1 -1.5,0.1 -3.1,0.1 h -39.3 c -1.6,0 -2.6,0 -3.1,-0.1 -0.4,-0.2 -1,-0.6 -1.7,-1.2 -0.7,-0.6 -1.1,-1.1 -1.2,-1.5 0,-0.4 0.1,-1.3 0.3,-2.7 l 11.4,-64 c 0.2,-1.3 0.4,-2.2 0.6,-2.5 0.3,-0.4 0.8,-1 1.8,-1.6 0.9,-0.6 1.6,-1 2.1,-1.1 0.4,-0.2 1.4,-0.3 3,-0.3 z m 81.4,0 h 33.6 c 1.6,0 2.6,0.1 3.1,0.3 0.4,0.1 1,0.4 1.7,1.1 0.7,0.6 1.1,1.2 1.1,1.6 0.1,0.4 0.1,1.2 -0.2,2.5 L 442,69.2 c -0.2,1.3 -0.5,2.2 -0.7,2.7 -0.2,0.4 -0.7,0.8 -1.6,1.5 -0.9,0.6 -1.6,1 -2.1,1.2 -0.5,0.1 -1.5,0.1 -3.1,0.1 h -33.6 z m -117,53.3 C 241.2,114.7 182,125.8 135.3,97.3 177.4,141.5 247,120 289.2,97.9 Z m -2.5,14.2 c -24.9,13.6 -41.8,18.9 -81.6,27.6 23.4,5.5 59.8,1.4 85.2,-8.7 -0.1,-0.1 -0.3,-0.2 -0.4,-0.4 l -2.8,-2.7 c -1.8,-1.8 -2.5,-4 -2,-6.7 z m 327.3,28.7 h -1.5 c -0.7,0 -1.4,0.3 -2.1,0.5 -0.5,0.2 -1,0.3 -1.5,0.6 -0.6,0.3 -1.1,0.6 -1.6,1 -1.4,1 -2.8,2 -4.1,3 -1.2,0.9 -2.4,1.8 -3.6,2.6 h -3.2 c 0.6,-2.6 1.2,-5.2 1.8,-7.7 h -6.1 c -1.4,6.2 -2.9,12.5 -4.3,18.7 h 6.1 c 0.6,-2.7 1.2,-5.3 1.8,-8 h 3 l 0.6,0.6 c 1.6,1.8 3.2,3.6 4.9,5.4 0.2,0.3 0.5,0.5 0.7,0.7 0.3,0.2 0.6,0.3 1,0.5 0.5,0.2 1,0.4 1.6,0.6 0.4,0.1 0.8,0.2 1.2,0.2 h 3.1 c 0.1,-0.6 0.3,-1.2 0.4,-1.8 0,-0.3 0.1,-0.6 -0.1,-0.9 -0.2,-0.3 -0.6,-0.4 -0.9,-0.5 -0.5,-0.2 -1,-0.3 -1.4,-0.5 -0.3,-0.1 -0.4,-0.3 -0.6,-0.5 -1.5,-1.6 -3,-3.2 -4.4,-4.8 l -0.6,-0.6 c 0.1,-0.1 0.3,-0.2 0.4,-0.3 l 5.7,-4.2 c 0.6,-0.4 1.1,-0.8 1.7,-1.2 0.8,-0.3 1.6,-0.4 2.4,-0.8 0.2,-0.1 0.5,-0.3 0.7,-0.5 0.2,-0.2 0.2,-0.5 0.3,-0.8 l 0.3,-1.5 c -0.7,0.2 -1.2,0.2 -1.7,0.2 z m -312.9,0 c -1.2,5.1 -2.3,10.1 -3.5,15.2 0,0.1 -0.1,0.3 -0.1,0.4 -0.2,0.1 -0.4,0.2 -0.6,0.2 h -6.1 c -0.2,0 -0.4,-0.1 -0.5,-0.2 0.1,-0.7 0.3,-1.4 0.5,-2.1 H 286 c -0.2,0.8 -0.4,1.6 -0.5,2.4 -0.1,0.4 0,0.8 0.3,1 0.4,0.5 1,0.7 1.6,1 0.7,0.4 1.4,0.6 2.1,0.7 0.5,0.1 1.1,0.1 1.6,0.1 h 6.9 c 0.6,0 1.2,0 1.8,-0.1 0.8,-0.1 1.6,-0.4 2.4,-0.7 0.7,-0.3 1.4,-0.5 1.9,-0.9 0.4,-0.3 0.7,-0.7 0.8,-1.2 1.2,-5.3 2.4,-10.5 3.6,-15.8 z m 22.4,0 -3.6,15.9 c -0.1,0.3 0,0.7 0.2,1 0.3,0.4 0.7,0.6 1.1,0.8 0.3,0.2 0.6,0.3 1,0.5 0.6,0.3 1.2,0.4 1.9,0.5 h 16.4 c 0.6,0 1.3,-0.1 1.9,-0.3 0.8,-0.2 1.6,-0.6 2.3,-0.9 0.6,-0.3 1.3,-0.6 1.7,-1.2 0.2,-0.2 0.2,-0.5 0.3,-0.8 l 3.6,-15.6 h -6.1 c -1.1,4.9 -2.2,9.7 -3.3,14.6 -0.1,0.3 -0.1,0.7 -0.3,1 -0.1,0.1 -0.3,0.1 -0.4,0.1 H 328 c -0.2,0 -0.4,-0.1 -0.5,-0.2 0.3,-1.2 0.5,-2.4 0.8,-3.5 0.9,-4 1.8,-8 2.8,-12 -2.3,0.1 -4.3,0.1 -6.3,0.1 z m 42.7,0 c -1.4,6.2 -2.9,12.5 -4.3,18.7 h 6.1 l 3,-12.9 c 0.1,0.1 0.1,0.2 0.2,0.3 0.4,0.8 0.7,1.5 1.1,2.3 0.5,1 1,2.1 1.5,3.1 1.1,2.4 2.4,4.8 3.6,7.2 h 4.4 c 1.9,-2 3.7,-4 5.6,-5.9 2.2,-2.4 4.5,-4.8 6.7,-7.2 -1,4.4 -2,8.7 -3,13.1 h 6.1 c 0.6,-2.5 1.1,-5 1.7,-7.5 0.9,-3.7 1.7,-7.5 2.6,-11.2 h -8 c -0.2,0.1 -0.3,0.3 -0.5,0.5 -4,4.3 -8.1,8.6 -12.1,12.9 -2.1,-4.5 -4.2,-8.9 -6.4,-13.4 z m 51,0 c -1.4,6.2 -2.9,12.5 -4.3,18.7 h 6.1 c 0.5,-2.3 1.1,-4.7 1.6,-7 h 12.2 c 0.6,0 1.2,-0.1 1.8,-0.3 0.8,-0.2 1.5,-0.5 2.2,-0.8 0.7,-0.3 1.3,-0.6 1.7,-1.2 0.2,-0.3 0.3,-0.7 0.3,-1 0.4,-1.9 0.8,-3.7 1.3,-5.6 0.1,-0.4 0,-0.7 -0.2,-1 -0.3,-0.3 -0.6,-0.5 -1,-0.7 -0.4,-0.2 -0.7,-0.4 -1.1,-0.5 -0.8,-0.4 -1.7,-0.6 -2.6,-0.6 z m 34.4,0 c 1.6,6.2 3.3,12.5 5,18.7 h 7.1 c 2.2,-3.4 4.5,-6.7 6.7,-10.1 0.8,-1.2 1.6,-2.5 2.5,-3.7 l 3,13.8 h 7 c 4.5,-6.2 9,-12.5 13.5,-18.7 h -6.3 c -0.1,0 -0.1,0.1 -0.2,0.2 -3.1,4.7 -6.2,9.3 -9.2,14 -0.3,-1.2 -0.5,-2.4 -0.8,-3.6 -0.8,-3.5 -1.6,-7 -2.4,-10.6 H 472 c -3.2,4.7 -6.3,9.4 -9.5,14.2 -0.1,-0.1 -0.1,-0.3 -0.1,-0.5 -1,-4.6 -2,-9.1 -3,-13.7 z m 62,0 H 514 c -0.8,0.1 -1.6,0.3 -2.4,0.6 l -1.5,0.6 c -0.5,0.3 -1,0.6 -1.3,1.1 -0.2,0.3 -0.2,0.6 -0.3,0.9 -1,4.2 -1.9,8.4 -2.9,12.6 -0.1,0.3 0,0.7 0.2,1 0.3,0.5 0.9,0.7 1.4,1 0.6,0.3 1.3,0.6 2,0.8 0.8,0.2 1.6,0.1 2.4,0.1 h 15.8 c 1.1,0 2.2,-0.3 3.3,-0.7 0.7,-0.3 1.5,-0.5 2.1,-1 0.4,-0.3 0.7,-0.7 0.8,-1.1 l 3,-12.9 c 0.1,-0.3 0.1,-0.6 0,-0.8 -0.2,-0.4 -0.6,-0.7 -1,-0.9 l -1.2,-0.6 c -0.8,-0.4 -1.8,-0.6 -2.7,-0.6 H 516 c -0.5,-0.1 -0.8,-0.1 -1.1,-0.1 z m 54.9,0 h -16.7 c -1.4,6.2 -2.9,12.5 -4.3,18.7 h 6.1 c 0.5,-2.3 1.1,-4.7 1.6,-7 h 4.9 c 1.6,1.7 3.2,3.4 4.7,5.2 0.2,0.2 0.5,0.4 0.7,0.6 0.6,0.4 1.3,0.6 1.9,0.9 0.4,0.1 0.8,0.3 1.2,0.3 0.6,0.1 1.1,0 1.7,0.1 h 1.8 l 0.3,-1.2 c 0.1,-0.4 0.2,-0.7 0.2,-1.1 0,-0.3 -0.3,-0.5 -0.5,-0.6 -0.5,-0.2 -1.1,-0.4 -1.6,-0.6 -0.2,-0.1 -0.4,-0.1 -0.5,-0.2 -1.1,-1.1 -2.2,-2.3 -3.3,-3.4 0.8,0 1.7,0 2.5,-0.3 0.8,-0.2 1.5,-0.6 2.3,-0.9 0.6,-0.3 1.3,-0.6 1.7,-1.2 0.2,-0.2 0.3,-0.6 0.3,-0.8 0.4,-1.9 0.8,-3.7 1.3,-5.6 0.1,-0.3 0,-0.7 -0.2,-1 -0.2,-0.4 -0.6,-0.6 -1,-0.8 -0.7,-0.3 -1.4,-0.7 -2.1,-0.9 -0.9,-0.3 -2,-0.2 -3,-0.2 z m 66.4,0 c -1.2,0 -2.4,0.2 -3.5,0.7 l -1.5,0.6 c -0.5,0.3 -1.1,0.6 -1.4,1.1 -0.2,0.3 -0.2,0.7 -0.3,1.1 -0.3,1.4 -0.7,2.8 -1,4.3 -0.1,0.2 -0.1,0.5 0,0.7 0.1,0.4 0.5,0.7 0.8,0.9 0.4,0.2 0.9,0.4 1.3,0.7 0.7,0.4 1.4,0.6 2.2,0.6 h 11.9 c 0.3,0 0.6,0 0.8,0.2 0,0.2 -0.1,0.5 -0.1,0.7 -0.2,1 -0.4,1.9 -0.7,2.9 -0.1,0.4 -0.1,0.7 -0.3,1.1 -0.1,0.1 -0.3,0.1 -0.4,0.2 h -11.2 c -0.1,0 -0.3,-0.1 -0.4,-0.2 0.1,-0.4 0.2,-0.9 0.3,-1.3 h -6.1 c -0.1,0.5 -0.3,1.1 -0.4,1.6 -0.1,0.3 0,0.6 0.2,0.9 0.2,0.4 0.6,0.6 1,0.8 0.4,0.2 0.7,0.4 1.1,0.5 0.8,0.4 1.7,0.6 2.6,0.6 h 13.1 c 0.5,0 1,0 1.5,-0.1 0.7,-0.1 1.5,-0.4 2.1,-0.7 0.5,-0.2 1,-0.4 1.4,-0.6 0.5,-0.3 1.1,-0.8 1.2,-1.4 0.4,-1.7 0.8,-3.5 1.2,-5.2 0.1,-0.3 0,-0.7 -0.1,-0.9 -0.2,-0.4 -0.6,-0.6 -1,-0.8 -0.7,-0.3 -1.3,-0.7 -2.1,-0.9 -0.9,-0.3 -1.9,-0.2 -2.8,-0.2 h -10.4 c -0.1,0 -0.3,-0.1 -0.4,-0.2 0.1,-0.6 0.3,-1.2 0.4,-1.8 l 0.6,-2.7 c 0.4,-0.2 0.8,-0.2 1.2,-0.2 h 9.3 c 0.2,0 0.4,0.1 0.6,0.2 -0.1,0.4 -0.2,0.9 -0.3,1.3 h 6.1 c 0.1,-0.4 0.2,-0.8 0.3,-1.3 0.1,-0.3 0.1,-0.5 0.1,-0.8 0,-0.3 -0.2,-0.6 -0.5,-0.8 -0.3,-0.3 -0.7,-0.5 -1.1,-0.6 -0.6,-0.3 -1.2,-0.6 -1.8,-0.8 -1,-0.3 -2,-0.2 -3,-0.2 z m -202.2,3 h 0.9 c 0.2,0 0.3,0.1 0.5,0.2 -0.1,0.4 -0.2,0.8 -0.2,1.1 -0.3,1.4 -0.6,2.8 -1,4.2 0,0.2 -0.2,0.2 -0.3,0.2 -0.2,0.1 -0.4,0.1 -0.7,0.1 h -10.6 c 0.4,-1.9 0.9,-3.9 1.3,-5.8 z m 93.1,0 h 2.6 c 0.2,0 0.4,0.1 0.6,0.2 l -0.3,1.2 c -0.8,3.6 -1.6,7.1 -2.4,10.7 0,0.2 -0.1,0.4 -0.2,0.6 -0.2,0.1 -0.4,0.2 -0.6,0.2 h -14.7 c -0.1,0 -0.3,-0.1 -0.4,-0.2 0.3,-1.2 0.6,-2.5 0.8,-3.7 0.6,-2.5 1.2,-5.1 1.7,-7.6 0.1,-0.4 0.2,-0.7 0.3,-1.1 0.3,-0.1 0.6,-0.2 0.9,-0.2 3.9,-0.1 7.8,-0.1 11.7,-0.1 z m 41.5,0 h 0.9 c 0.2,0 0.3,0.1 0.5,0.2 l -0.3,1.2 c -0.3,1.3 -0.6,2.6 -0.9,4 0,0.1 0,0.2 -0.1,0.3 -0.2,0.1 -0.4,0.2 -0.6,0.2 h -10.9 c 0.4,-1.9 0.9,-3.9 1.3,-5.8 3.4,-0.1 6.7,-0.1 10.1,-0.1 z"
       fill-opacity="0.119"
       id="path2" />
    <linearGradient
       id="linearGradient316"
       gradientUnits="userSpaceOnUse"
       x1="397.63181"
       y1="156.4321"
       x2="397.63181"
       y2="-143.5679"
       gradientTransform="matrix(0.8,0,0,-0.8,44.4947,40.9746)">
      <stop
         offset="0"
         stop-color="#24c2ff"
         id="stop312" />
      <stop
         offset="1"
         stop-color="#00b7ff"
         id="stop314" />
    </linearGradient>
    <path
       d="M 254.1,-80.1 C 161.1,-79.5 79.6,1.8 54,114.4 95.1,8.9 174.2,-56.1 283.2,-77.7 c -9.8,-1.7 -19.5,-2.5 -29.1,-2.4 z m 37.1,11.5 c -59.5,-0.7 -125.9,42.7 -154,69.9 58.4,-41.6 142.5,-84.3 212.1,-47.4 1.7,0.9 3.3,2 5.2,2.6 -0.8,-1.7 -2.3,-2.9 -3.6,-4.1 -17.6,-14.7 -38.2,-20.7 -59.7,-21 z m 143.6,6.6 c -11.2,31 -25.2,55 -44.2,80.2 h 13.1 c 14,-25.3 23.9,-51.9 31.1,-80.2 z m -156.5,9.2 c 37.6,1 88.1,16.2 69.4,71 H 359 c 24.8,-57.7 -35.1,-70.4 -80.7,-71 z m -14.7,15.2 c -13.6,-0.1 -27.8,2.9 -41,8.8 -40.7,18 -62.7,57.6 -49.1,88.5 13.6,30.9 57.7,41.4 98.4,23.5 7.1,-3.1 13.8,-7 19.9,-11.6 L 296,47.9 c -8.2,9.7 -19.2,17.8 -31.7,23.3 -35.6,15.7 -74,6.8 -85.7,-19.8 -11.7,-26.6 7.6,-61 43.2,-76.7 35.6,-15.7 74,-6.8 85.7,19.8 3.6,8.1 4.3,17.2 2.3,26.5 l 0.2,-0.2 c 2.5,-1.8 4.8,-2.7 6.9,-2.7 h 7.8 c 0.7,-8.3 -0.6,-16.3 -3.8,-23.6 -8.4,-19.1 -29,-31.2 -54.7,-32.1 -0.8,0.1 -1.7,0 -2.6,0 z m -94.3,23 C 115.2,34.8 91,96.3 197.9,104 118.7,92.4 124.9,43.1 169.3,-14.6 Z m 95.8,2.2 c -5.4,0 -9.7,4.3 -9.7,9.7 0,5.4 4.3,9.7 9.7,9.7 5.4,0 9.7,-4.3 9.7,-9.7 0,-5.3 -4.3,-9.7 -9.7,-9.7 z m 10.1,21.8 c -2.5,0 -4.5,2 -4.5,4.5 0,2.5 2,4.5 4.5,4.5 2.5,0 4.5,-2 4.5,-4.5 0,-2.4 -2,-4.5 -4.5,-4.5 z m 46.2,16.8 c -2.2,0 -4.5,0.9 -6.9,2.7 l -3.7,2.7 c -2.5,1.8 -3.9,4 -4.4,6.7 L 294,107.8 c -0.5,2.7 0.2,4.9 2,6.7 l 2.8,2.7 c 1.8,1.8 3.8,2.7 6,2.7 h 49.3 c 2.2,0 4.5,-0.9 6.9,-2.7 l 3.7,-2.7 c 2.5,-1.8 3.9,-4 4.4,-6.7 l 12.4,-69.6 c 0.5,-2.7 -0.2,-4.9 -2,-6.7 l -2.8,-2.7 c -1.8,-1.8 -3.8,-2.7 -6,-2.7 h -49.3 z m 75.1,0 -16.7,93.7 h 11.3 l 6.7,-37.5 h 19.4 l 12.9,28.5 c 0.9,2.1 2.2,3.9 3.9,5.2 l 2.3,1.7 c 1.3,1 2.1,1.6 2.7,1.7 0.6,0.2 1.7,0.3 3.3,0.3 h 3.4 l 0.9,-5.2 c 0.4,-2.1 0.5,-3.3 0.3,-3.9 -0.2,-0.5 -1,-1.2 -2.5,-2.1 l -1.3,-0.8 c -1.3,-0.8 -2.1,-1.4 -2.5,-1.7 -0.3,-0.4 -0.8,-1.4 -1.5,-2.9 L 429,81.8 h 7.5 c 2.2,0 4.4,-0.8 6.6,-2.4 l 3.9,-2.8 c 2.6,-1.9 4.1,-4.2 4.6,-7 l 5.6,-31.3 c 0.5,-2.7 -0.2,-4.9 -2,-6.7 l -2.8,-2.7 c -1.8,-1.8 -3.8,-2.7 -6,-2.7 z m 76.7,0 -16.7,93.7 h 11.3 l 16.7,-93.7 z m 37,0 c -2.2,0 -4.5,0.9 -6.9,2.7 l -3.7,2.7 c -2.5,1.8 -3.9,4 -4.4,6.7 l -12.4,69.6 c -0.5,2.7 0.2,4.9 2,6.7 l 2.8,2.7 c 1.8,1.8 3.8,2.7 6,2.7 h 43.1 c 2.2,0 4.5,-0.9 6.9,-2.7 l 3.7,-2.7 c 2.5,-1.8 3.9,-4 4.4,-6.7 l 6.4,-36.1 h -31.8 l -1.7,9.4 h 20.5 l -4.3,24 c -0.2,1.3 -0.5,2.2 -0.7,2.7 -0.2,0.4 -0.7,0.8 -1.6,1.5 -0.9,0.6 -1.6,1 -2.1,1.2 -0.5,0.1 -1.5,0.1 -3.1,0.1 h -33.1 c -1.6,0 -2.6,0 -3.1,-0.1 -0.4,-0.2 -1,-0.6 -1.7,-1.2 -0.7,-0.6 -1.1,-1.1 -1.2,-1.5 0,-0.4 0.1,-1.3 0.3,-2.7 l 11.4,-64 c 0.2,-1.3 0.4,-2.2 0.6,-2.5 0.3,-0.4 0.8,-1 1.8,-1.6 0.9,-0.6 1.6,-1 2.1,-1.1 0.5,-0.2 1.5,-0.3 3.1,-0.3 h 33.1 c 1.6,0 2.6,0.1 3.1,0.3 0.4,0.1 1,0.4 1.7,1.1 0.7,0.6 1.1,1.2 1.1,1.6 0.1,0.4 0.1,1.2 -0.2,2.5 l -0.5,2.5 h 11.3 l 1,-5.4 c 0.5,-2.7 -0.2,-4.9 -2,-6.7 l -2.8,-2.7 c -1.8,-1.8 -3.8,-2.7 -6,-2.7 z m 65.6,0 -16.7,93.7 h 11.3 l 16.7,-93.7 z m 24,0 -16.7,93.7 h 11.3 l 12.2,-68.7 c 0.4,-2.1 0.4,-4.3 0.2,-6.4 l 0.4,-0.1 35.9,75.2 h 11.3 L 671.1,26.2 H 659.8 L 647.4,96 c -0.4,2.1 -0.4,4.3 -0.2,6.4 l -0.4,0.1 L 611,26.2 Z m -275,9.3 h 39.3 c 1.6,0 2.6,0.1 3.1,0.3 0.4,0.1 1,0.4 1.7,1.1 0.7,0.6 1.1,1.2 1.1,1.6 0.1,0.4 0.1,1.2 -0.2,2.5 l -11.4,64 c -0.2,1.3 -0.5,2.2 -0.7,2.7 -0.2,0.4 -0.7,0.8 -1.6,1.5 -0.9,0.6 -1.6,1 -2.1,1.2 -0.5,0.1 -1.5,0.1 -3.1,0.1 h -39.3 c -1.6,0 -2.6,0 -3.1,-0.1 -0.4,-0.2 -1,-0.6 -1.7,-1.2 -0.7,-0.6 -1.1,-1.1 -1.2,-1.5 0,-0.4 0.1,-1.3 0.3,-2.7 l 11.4,-64 c 0.2,-1.3 0.4,-2.2 0.6,-2.5 0.3,-0.4 0.8,-1 1.8,-1.6 0.9,-0.6 1.6,-1 2.1,-1.1 0.3,-0.2 1.3,-0.3 3,-0.3 z m 81.4,0 h 33.6 c 1.6,0 2.6,0.1 3.1,0.3 0.4,0.1 1,0.4 1.7,1.1 0.7,0.6 1.1,1.2 1.1,1.6 0.1,0.4 0.1,1.2 -0.2,2.5 l -4.7,26.5 c -0.2,1.3 -0.5,2.2 -0.7,2.7 -0.2,0.4 -0.7,0.8 -1.6,1.5 -0.9,0.6 -1.6,1 -2.1,1.2 -0.5,0.1 -1.5,0.1 -3.1,0.1 h -33.6 c -0.2,0 6.5,-37.5 6.5,-37.5 z M 289.1,88.8 c -49.3,24.2 -108.5,35.3 -155.2,6.8 42.1,44.2 111.7,22.7 153.9,0.6 z m -2.5,14.2 c -24.9,13.6 -41.8,18.9 -81.6,27.6 23.4,5.5 59.8,1.4 85.2,-8.7 -0.1,-0.1 -0.3,-0.2 -0.4,-0.4 l -2.8,-2.7 c -1.8,-1.8 -2.5,-4 -2,-6.7 z m 327.3,28.7 h -1.5 c -0.7,0 -1.4,0.3 -2.1,0.5 -0.5,0.2 -1,0.3 -1.5,0.6 -0.6,0.3 -1.1,0.6 -1.6,1 -1.4,1 -2.8,2 -4.1,3 -1.2,0.9 -2.4,1.8 -3.6,2.6 h -3.2 c 0.6,-2.6 1.2,-5.2 1.8,-7.7 H 592 c -1.4,6.2 -2.9,12.5 -4.3,18.7 h 6.1 c 0.6,-2.7 1.2,-5.3 1.8,-8 h 3 l 0.6,0.6 c 1.6,1.8 3.2,3.6 4.9,5.4 0.2,0.3 0.5,0.5 0.7,0.7 0.3,0.2 0.6,0.3 1,0.5 0.5,0.2 1,0.4 1.6,0.6 0.4,0.1 0.8,0.2 1.2,0.2 h 3.1 c 0.1,-0.6 0.3,-1.2 0.4,-1.8 0,-0.3 0.1,-0.6 -0.1,-0.9 -0.2,-0.3 -0.6,-0.4 -0.9,-0.5 -0.5,-0.2 -1,-0.3 -1.4,-0.5 -0.3,-0.1 -0.4,-0.3 -0.6,-0.5 -1.5,-1.6 -3,-3.2 -4.4,-4.8 l -0.6,-0.6 c 0.1,-0.1 0.3,-0.2 0.4,-0.3 l 5.7,-4.2 c 0.6,-0.4 1.1,-0.8 1.7,-1.2 0.8,-0.3 1.6,-0.4 2.4,-0.8 0.2,-0.1 0.5,-0.3 0.7,-0.5 0.2,-0.2 0.2,-0.5 0.3,-0.8 l 0.3,-1.5 c -0.6,0.2 -1.2,0.2 -1.7,0.2 z m -312.9,0 c -1.2,5.1 -2.3,10.1 -3.5,15.2 0,0.1 -0.1,0.3 -0.1,0.4 -0.2,0.1 -0.4,0.2 -0.6,0.2 h -6.1 c -0.2,0 -0.4,-0.1 -0.5,-0.2 0.1,-0.7 0.3,-1.4 0.5,-2.1 h -6.1 c -0.2,0.8 -0.4,1.6 -0.5,2.4 -0.1,0.4 0,0.8 0.3,1 0.4,0.5 1,0.7 1.6,1 0.7,0.4 1.4,0.6 2.1,0.7 0.5,0.1 1.1,0.1 1.6,0.1 h 6.9 c 0.6,0 1.2,0 1.8,-0.1 0.8,-0.1 1.6,-0.4 2.4,-0.7 0.7,-0.3 1.4,-0.5 1.9,-0.9 0.4,-0.3 0.7,-0.7 0.8,-1.2 1.2,-5.3 2.4,-10.5 3.6,-15.8 z m 22.4,0 -3.6,15.9 c -0.1,0.3 0,0.7 0.2,1 0.3,0.4 0.7,0.6 1.1,0.8 0.3,0.2 0.6,0.3 1,0.5 0.6,0.3 1.2,0.4 1.9,0.5 h 16.4 c 0.6,0 1.3,-0.1 1.9,-0.3 0.8,-0.2 1.6,-0.6 2.3,-0.9 0.6,-0.3 1.3,-0.6 1.7,-1.2 0.2,-0.2 0.2,-0.5 0.3,-0.8 l 3.6,-15.6 h -6.1 c -1.1,4.9 -2.2,9.7 -3.3,14.6 -0.1,0.3 -0.1,0.7 -0.3,1 -0.1,0.1 -0.3,0.1 -0.4,0.1 h -13.5 c -0.2,0 -0.4,-0.1 -0.5,-0.2 0.3,-1.2 0.5,-2.4 0.8,-3.5 0.9,-4 1.8,-8 2.8,-12 -2.2,0.1 -4.2,0.1 -6.3,0.1 z m 42.8,0 c -1.4,6.2 -2.9,12.5 -4.3,18.7 h 6.1 l 3,-12.9 c 0.1,0.1 0.1,0.2 0.2,0.3 0.4,0.8 0.7,1.5 1.1,2.3 0.5,1 1,2.1 1.5,3.1 1.1,2.4 2.4,4.8 3.6,7.2 h 4.5 c 1.9,-2 3.7,-4 5.6,-5.9 2.2,-2.4 4.5,-4.8 6.7,-7.2 -1,4.4 -2,8.7 -3,13.1 h 6.1 c 0.6,-2.5 1.1,-5 1.7,-7.5 0.9,-3.7 1.7,-7.5 2.6,-11.2 h -8 c -0.2,0.1 -0.3,0.3 -0.5,0.5 -4,4.3 -8.1,8.6 -12.1,12.9 -2.1,-4.5 -4.2,-8.9 -6.4,-13.4 z m 50.9,0 c -1.4,6.2 -2.9,12.5 -4.3,18.7 h 6.1 c 0.5,-2.3 1.1,-4.7 1.6,-7 h 12.2 c 0.6,0 1.2,-0.1 1.8,-0.3 0.8,-0.2 1.5,-0.5 2.2,-0.8 0.7,-0.3 1.3,-0.6 1.7,-1.2 0.2,-0.3 0.3,-0.7 0.3,-1 0.4,-1.9 0.8,-3.7 1.3,-5.6 0.1,-0.4 0,-0.7 -0.2,-1 -0.3,-0.3 -0.6,-0.5 -1,-0.7 -0.4,-0.2 -0.7,-0.4 -1.1,-0.5 -0.8,-0.4 -1.7,-0.6 -2.6,-0.6 z m 34.5,0 c 1.6,6.2 3.3,12.5 5,18.7 h 7.1 c 2.2,-3.4 4.5,-6.7 6.7,-10.1 0.8,-1.2 1.6,-2.5 2.5,-3.7 l 3,13.8 h 7 c 4.5,-6.2 9,-12.5 13.5,-18.7 h -6.3 c -0.1,0 -0.1,0.1 -0.2,0.2 -3.1,4.7 -6.2,9.3 -9.2,14 -0.3,-1.2 -0.5,-2.4 -0.8,-3.6 -0.8,-3.5 -1.6,-7 -2.4,-10.6 h -6.8 c -3.2,4.7 -6.3,9.4 -9.5,14.2 -0.1,-0.1 -0.1,-0.3 -0.1,-0.5 -1,-4.6 -2,-9.1 -3,-13.7 z m 61.9,0 h -0.9 c -0.8,0.1 -1.6,0.3 -2.4,0.6 -0.5,0.2 -1,0.4 -1.5,0.7 -0.5,0.3 -1,0.6 -1.3,1.1 -0.2,0.3 -0.2,0.6 -0.3,0.9 -1,4.2 -1.9,8.4 -2.9,12.6 -0.1,0.3 0,0.7 0.2,1 0.3,0.5 0.9,0.7 1.4,1 0.6,0.3 1.3,0.6 2,0.8 0.8,0.2 1.6,0.1 2.4,0.1 H 526 c 1.1,0 2.2,-0.3 3.3,-0.7 0.7,-0.3 1.5,-0.5 2.1,-1 0.4,-0.3 0.7,-0.7 0.8,-1.1 l 3,-12.9 c 0.1,-0.3 0.1,-0.6 0,-0.8 -0.2,-0.4 -0.6,-0.7 -1,-0.9 l -1.2,-0.6 c -0.8,-0.4 -1.8,-0.6 -2.7,-0.6 h -15.7 c -0.5,-0.2 -0.8,-0.2 -1.1,-0.2 z m 55,0 h -16.7 c -1.4,6.2 -2.9,12.5 -4.3,18.7 h 6.1 c 0.5,-2.3 1.1,-4.7 1.6,-7 h 4.9 c 1.6,1.7 3.2,3.4 4.7,5.2 0.2,0.2 0.5,0.4 0.7,0.6 0.6,0.4 1.3,0.6 1.9,0.9 0.4,0.1 0.8,0.3 1.2,0.3 0.6,0.1 1.1,0 1.7,0.1 h 1.8 l 0.3,-1.2 c 0.1,-0.4 0.2,-0.7 0.2,-1.1 0,-0.3 -0.3,-0.5 -0.5,-0.6 -0.5,-0.2 -1.1,-0.4 -1.6,-0.6 -0.2,-0.1 -0.4,-0.1 -0.5,-0.2 -1.1,-1.1 -2.2,-2.3 -3.3,-3.4 0.8,0 1.7,0 2.5,-0.3 0.8,-0.2 1.5,-0.6 2.3,-0.9 0.6,-0.3 1.3,-0.6 1.7,-1.2 0.2,-0.2 0.3,-0.6 0.3,-0.8 0.4,-1.9 0.8,-3.7 1.3,-5.6 0.1,-0.3 0,-0.7 -0.2,-1 -0.2,-0.4 -0.6,-0.6 -1,-0.8 -0.7,-0.3 -1.4,-0.7 -2.1,-0.9 -1,-0.3 -2,-0.2 -3,-0.2 z m 66.3,0 c -1.2,0 -2.4,0.2 -3.5,0.7 l -1.5,0.6 c -0.5,0.3 -1.1,0.6 -1.4,1.1 -0.2,0.3 -0.2,0.7 -0.3,1.1 -0.3,1.4 -0.7,2.8 -1,4.3 -0.1,0.2 -0.1,0.5 0,0.7 0.1,0.4 0.5,0.7 0.8,0.9 0.4,0.2 0.9,0.4 1.3,0.7 0.7,0.4 1.4,0.6 2.2,0.6 h 11.9 c 0.3,0 0.6,0 0.8,0.2 0,0.2 -0.1,0.5 -0.1,0.7 -0.2,1 -0.4,1.9 -0.7,2.9 -0.1,0.4 -0.1,0.7 -0.3,1.1 -0.1,0.1 -0.3,0.1 -0.4,0.2 h -11.2 c -0.1,0 -0.3,-0.1 -0.4,-0.2 0.1,-0.4 0.2,-0.9 0.3,-1.3 h -6.1 c -0.1,0.5 -0.3,1.1 -0.4,1.6 -0.1,0.3 0,0.6 0.2,0.9 0.2,0.4 0.6,0.6 1,0.8 0.4,0.2 0.7,0.4 1.1,0.5 0.8,0.4 1.7,0.6 2.6,0.6 h 13.1 c 0.5,0 1,0 1.5,-0.1 0.7,-0.1 1.5,-0.4 2.1,-0.7 0.5,-0.2 1,-0.4 1.4,-0.6 0.5,-0.3 1.1,-0.8 1.2,-1.4 0.4,-1.7 0.8,-3.5 1.2,-5.2 0.1,-0.3 0,-0.7 -0.1,-0.9 -0.2,-0.4 -0.6,-0.6 -1,-0.8 -0.7,-0.3 -1.3,-0.7 -2.1,-0.9 -0.9,-0.3 -1.9,-0.2 -2.8,-0.2 h -10.5 c -0.1,0 -0.3,-0.1 -0.4,-0.2 0.1,-0.6 0.3,-1.2 0.4,-1.8 l 0.6,-2.7 c 0.4,-0.2 0.8,-0.2 1.2,-0.2 h 9.3 c 0.2,0 0.4,0.1 0.6,0.2 -0.1,0.4 -0.2,0.9 -0.3,1.3 h 6.1 c 0.1,-0.4 0.2,-0.8 0.3,-1.3 0.1,-0.3 0.1,-0.5 0.1,-0.8 0,-0.3 -0.2,-0.6 -0.5,-0.8 -0.3,-0.3 -0.7,-0.5 -1.1,-0.7 -0.6,-0.3 -1.2,-0.6 -1.8,-0.8 -1,-0.3 -2,-0.2 -3,-0.2 z m -202.2,3 h 0.9 c 0.2,0 0.3,0.1 0.5,0.2 -0.1,0.4 -0.2,0.8 -0.2,1.1 -0.3,1.4 -0.6,2.8 -1,4.2 0,0.2 -0.2,0.2 -0.3,0.2 -0.2,0.1 -0.4,0.1 -0.7,0.1 h -10.6 c 0.4,-1.9 0.9,-3.9 1.3,-5.8 z m 93.1,0 h 2.6 c 0.2,0 0.4,0.1 0.6,0.2 l -0.3,1.2 c -0.8,3.6 -1.6,7.1 -2.4,10.7 0,0.2 -0.1,0.4 -0.2,0.6 -0.2,0.1 -0.4,0.2 -0.6,0.2 h -14.7 c -0.1,0 -0.3,-0.1 -0.4,-0.2 0.3,-1.2 0.6,-2.5 0.8,-3.7 0.6,-2.5 1.2,-5.1 1.7,-7.6 0.1,-0.4 0.2,-0.7 0.3,-1.1 0.3,-0.1 0.6,-0.2 0.9,-0.2 3.9,-0.1 7.8,-0.1 11.7,-0.1 z m 41.5,0 h 0.9 c 0.2,0 0.3,0.1 0.5,0.2 l -0.3,1.2 c -0.3,1.3 -0.6,2.6 -0.9,4 0,0.1 0,0.2 -0.1,0.3 -0.2,0.1 -0.4,0.2 -0.6,0.2 h -10.9 c 0.4,-1.9 0.9,-3.9 1.3,-5.8 3.4,-0.1 6.8,-0.1 10.1,-0.1 z"
       fill="url(#a)"
       id="path9"
       style="fill:url(#a)" />
  </g>
</svg>
