<?xml version="1.0" encoding="UTF-8" standalone="no"?>
<svg
   id="Layer_1"
   data-name="Layer 1"
   viewBox="0 0 800 600"
   version="1.1"
   sodipodi:docname="Origin_Jumpworks_Logo.svg"
   inkscape:version="1.2.1 (9c6d41e410, 2022-07-14)"
   xmlns:inkscape="http://www.inkscape.org/namespaces/inkscape"
   xmlns:sodipodi="http://sodipodi.sourceforge.net/DTD/sodipodi-0.dtd"
   xmlns="http://www.w3.org/2000/svg"
   xmlns:svg="http://www.w3.org/2000/svg">
  <defs
     id="defs436" />
  <sodipodi:namedview
     id="namedview434"
     pagecolor="#ffffff"
     bordercolor="#000000"
     borderopacity="0.25"
     inkscape:showpageshadow="2"
     inkscape:pageopacity="0.0"
     inkscape:pagecheckerboard="0"
     inkscape:deskcolor="#d1d1d1"
     showgrid="false"
     inkscape:zoom="0.92159584"
     inkscape:cx="468.75212"
     inkscape:cy="323.89469"
     inkscape:window-width="1920"
     inkscape:window-height="1012"
     inkscape:window-x="0"
     inkscape:window-y="0"
     inkscape:window-maximized="1"
     inkscape:current-layer="Layer_1" />
  <path
     d="M434.513,190.17a11.253,11.253,0,1,0-11.252,11.1,11.174,11.174,0,0,0,11.252-11.095"
     id="path387" />
  <path
     d="M439.345,207.791a5.067,5.067,0,1,0-5.068,5,5.033,5.033,0,0,0,5.068-5"
     id="path389" />
  <path
     d="M282.829,194.438s61.676-53.559,127.665-70.837c76.6-20.058,110.789,21.977,110.789,21.977s-42.558-26.541-104.3-14.51c-73.353,14.295-134.156,63.37-134.156,63.37"
     id="path391" />
  <path
     d="M442.519,108.664S366.985,90.756,290.3,150.591C213.586,210.439,190,317.335,190,317.335S216.094,232.8,302.627,168.194c64.591-48.222,139.892-59.53,139.892-59.53"
     id="path393" />
  <path
     d="M473.625,209.572c-2.543,38.817-47.653,69.554-91.538,69.554-36.448,0-65.547-27.5-55.66-62.963,12.039-43.166,60.461-57.945,83.348-59.155,28.832-1.528,66.392,13.747,63.85,52.564M415.9,152.4c-26.29,1.391-81.92,18.368-95.75,67.962C308.8,261.1,342.226,292.692,384.1,292.692c50.416,0,102.242-35.311,105.161-79.9S449.027,150.646,415.9,152.4"
     id="path395" />
  <path
     d="M436.677,135.164s103.214,1.6,77.573,76.58C487.361,290.373,396,317.335,348.718,315.736c-48.334-1.636-69.135-17.6-69.135-17.6s51.716,61.236,168.453-.961c82.9-44.166,99.319-110.737,74.966-137.246-22.656-24.664-86.325-24.762-86.325-24.762"
     id="path397" />
  <path
     d="M317.913,176.3s-39.67,46.186-35.084,83.639c5.787,47.259,80.928,47.369,80.928,47.369.792.032-92.093.034-96.4-43.1-4.219-42.265,50.555-87.908,50.555-87.908"
     id="path399" />
  <path
     d="M357.481,334.939c-7.139,1.058,99.86-14.987,166.507-78.922C590.849,191.878,610,126.588,610,126.588s-23.713,98.64-78.24,148.821c-87.294,80.333-174.279,59.53-174.279,59.53"
     id="path401" />
  <path
     d="M242.92,405.452a17.954,17.954,0,0,0,5.339,12.855,18.834,18.834,0,0,0,5.826,3.9,17.651,17.651,0,0,0,7.073,1.437A17.42,17.42,0,0,0,268.2,422.2a18.512,18.512,0,0,0,5.755-3.9,18.26,18.26,0,0,0,3.885-5.777,18.153,18.153,0,0,0-3.919-20,18.965,18.965,0,0,0-5.792-3.9,17.4,17.4,0,0,0-7.039-1.437,17.658,17.658,0,0,0-7.073,1.437,18.378,18.378,0,0,0-5.789,3.9,18.277,18.277,0,0,0-5.305,12.924m-7.56-.069a24.123,24.123,0,0,1,2.012-9.745,25.909,25.909,0,0,1,5.513-8.1,26.237,26.237,0,0,1,8.149-5.506,25.637,25.637,0,0,1,19.935,0,26.194,26.194,0,0,1,8.186,5.506,26.506,26.506,0,0,1,5.547,8.1,24.5,24.5,0,0,1,0,19.593A25.916,25.916,0,0,1,270.969,428.7a26.042,26.042,0,0,1-19.935,0,25.993,25.993,0,0,1-8.149-5.437,25.589,25.589,0,0,1-5.513-8.034,24.2,24.2,0,0,1-2.012-9.848"
     id="path403" />
  <path
     d="M322.6,405.383h6.865a10.5,10.5,0,0,0,4.648-.922,8.391,8.391,0,0,0,2.946-2.291,8.54,8.54,0,0,0,1.525-2.941,10.492,10.492,0,0,0,.453-2.873,10.13,10.13,0,0,0-.453-2.836,7.957,7.957,0,0,0-1.56-2.872,8.67,8.67,0,0,0-2.946-2.223,10.416,10.416,0,0,0-4.542-.89H322.6Zm-7.628,24.754V380.56H328.7a24.243,24.243,0,0,1,7.247,1.027,16.172,16.172,0,0,1,5.686,3.044,13.808,13.808,0,0,1,3.712,4.921,16.023,16.023,0,0,1,1.318,6.667,20.2,20.2,0,0,1-.416,4.071,15.932,15.932,0,0,1-1.355,3.9,15.331,15.331,0,0,1-2.391,3.487,12.656,12.656,0,0,1-3.537,2.7q2.772,4.309,6.034,9.54t6.588,10.222H342.5q-1.389-2.12-2.877-4.445t-2.983-4.616q-1.493-2.288-2.912-4.513t-2.67-4.137H322.6v17.711Z"
     id="path405" />
  <rect
     x="379.324"
     y="380.562"
     width="7.559"
     height="49.577"
     id="rect407" />
  <path
     d="M456.163,406.409V427.2a25.78,25.78,0,0,1-6.936,2.564,36.414,36.414,0,0,1-8.183.924,29.4,29.4,0,0,1-10.714-1.846,24.447,24.447,0,0,1-8.148-5.1,21.834,21.834,0,0,1-5.2-7.691,25.594,25.594,0,0,1-1.8-9.711,26.16,26.16,0,0,1,2.115-10.633,25.621,25.621,0,0,1,5.758-8.31,26.553,26.553,0,0,1,18.48-7.383,33.335,33.335,0,0,1,7.56.922,24.51,24.51,0,0,1,6.865,2.633l-3.677,6.085a13.772,13.772,0,0,0-2.391-1.093,27.59,27.59,0,0,0-2.809-.822,26.483,26.483,0,0,0-2.912-.513,24.276,24.276,0,0,0-2.775-.169,17.958,17.958,0,0,0-7.073,1.436,18.859,18.859,0,0,0-5.963,3.965,19.333,19.333,0,0,0-4.093,5.948,17.929,17.929,0,0,0-1.525,7.386,17.437,17.437,0,0,0,1.352,6.839,17.692,17.692,0,0,0,9.605,9.574,19.065,19.065,0,0,0,7.489,1.435,27.66,27.66,0,0,0,3.78-.308,19.919,19.919,0,0,0,4.195-1.059v-9.437h-9.777v-6.428Z"
     id="path409" />
  <rect
     x="486.954"
     y="380.562"
     width="7.559"
     height="49.577"
     id="rect411" />
  <path
     d="M570.378,380.561V432.4a51.118,51.118,0,0,0-3.746-3.968q-2.772-2.733-6.378-6.291t-7.665-7.452q-4.056-3.9-7.662-7.42t-6.31-6.29q-2.706-2.769-3.606-3.932l-1.318-1.78.208,2.189v32.687h-7.628v-51.9q.762.959,2.53,2.736t4.161,4.137q2.4,2.358,5.271,5.1t5.827,5.538q2.944,2.805,5.823,5.5t5.271,5.025q2.391,2.328,4.127,4.1t2.426,2.665l1.317,1.917-.208-2.325V380.561Z"
     id="path413" />
  <path
     d="M235.95,491.394v-3.413a10.033,10.033,0,0,0,3.57-.826A7.938,7.938,0,0,0,242.3,485.1a9.818,9.818,0,0,0,1.836-3.306,13.894,13.894,0,0,0,.678-4.532v-31.72h3.73v31.881a16.659,16.659,0,0,1-.973,5.89,12.515,12.515,0,0,1-2.677,4.347,11.894,11.894,0,0,1-4,2.718,13.462,13.462,0,0,1-4.948,1.012"
     id="path415" />
  <path
     d="M288.666,483.877H286.18l-.325-5.757a10.007,10.007,0,0,1-3.46,4.317,9.446,9.446,0,0,1-5.623,1.653,7.08,7.08,0,0,1-5.056-1.758,6.43,6.43,0,0,1-1.973-4.64V462.287h2.973V476.68a4.814,4.814,0,0,0,1.3,3.092,4.956,4.956,0,0,0,3.568,1.387,8.881,8.881,0,0,0,3.163-.56,7.943,7.943,0,0,0,2.57-1.545,7.5,7.5,0,0,0,1.728-2.374,7.073,7.073,0,0,0,.651-3.039V462.287h2.972Z"
     id="path417" />
  <path
     d="M309.05,462.286h2.54c.037.32.063.738.083,1.252s.044,1.048.081,1.6.061,1.066.08,1.545.027.844.027,1.093a10.605,10.605,0,0,1,3.379-4.291,9.108,9.108,0,0,1,5.435-1.679,7.224,7.224,0,0,1,4.865,1.572,6.277,6.277,0,0,1,2.164,4.131,10.759,10.759,0,0,1,3.379-4.105,9.1,9.1,0,0,1,5.325-1.6,7.153,7.153,0,0,1,5.109,1.757,6.423,6.423,0,0,1,1.973,4.638V483.61h-2.973V469.217a4.831,4.831,0,0,0-1.3-3.093,4.961,4.961,0,0,0-3.567-1.386,8.452,8.452,0,0,0-3.11.56,7.729,7.729,0,0,0-2.486,1.545,7.017,7.017,0,0,0-1.65,2.347,7.946,7.946,0,0,0-.648,2.958V483.61h-2.976V469.217a4.818,4.818,0,0,0-1.295-3.093,4.9,4.9,0,0,0-3.516-1.386,8.585,8.585,0,0,0-3.161.56,7.8,7.8,0,0,0-2.516,1.572,7.069,7.069,0,0,0-1.675,2.4,7.618,7.618,0,0,0-.6,3.039v11.3H309.05Z"
     id="path419" />
  <path
     d="M383.284,472.948a8.918,8.918,0,0,0-.594-3.278,7.413,7.413,0,0,0-1.7-2.614,8.345,8.345,0,0,0-5.919-2.371,8.616,8.616,0,0,0-6,2.371,7.945,7.945,0,0,0-1.785,2.587,8.482,8.482,0,0,0,0,6.5,8.224,8.224,0,0,0,1.785,2.614,8.345,8.345,0,0,0,2.677,1.76,8.6,8.6,0,0,0,3.325.638,8.42,8.42,0,0,0,3.3-.638,8.129,8.129,0,0,0,2.621-1.76,7.741,7.741,0,0,0,1.7-2.614,8.561,8.561,0,0,0,.594-3.2m3.191,0a11.3,11.3,0,0,1-.839,4.372,10.523,10.523,0,0,1-2.352,3.518,11.039,11.039,0,0,1-3.567,2.347,11.628,11.628,0,0,1-4.489.853,10.385,10.385,0,0,1-5.378-1.386,7.707,7.707,0,0,1-3.272-3.413c0,.357.008.7.027,1.039s.027.7.027,1.093v12.476h-2.975V462.286h2.868c0,.108.007.338.026.692s.027.755.027,1.2.008.9.027,1.36.027.873.027,1.227a9.431,9.431,0,0,1,3.3-3.467,9.617,9.617,0,0,1,5.406-1.491,11.7,11.7,0,0,1,4.462.826,10.691,10.691,0,0,1,3.513,2.291,10.411,10.411,0,0,1,2.325,3.518,11.791,11.791,0,0,1,.839,4.506"
     id="path421" />
  <path
     d="M416.915,466.871l-2.107-4.585h2.648q2.7,5.916,4.461,9.941t3.054,7.066q.649-1.922,1.379-3.733t1.6-3.785q.862-1.972,1.92-4.266t2.352-5.223h2.972l-10.219,22.6q-1.838-3.836-3.379-7.569t-3.379-7.572l-6.488,15.141q-2.543-5.7-5-11.3t-4.946-11.3h2.973q1.3,2.931,2.3,5.25t1.811,4.293q.811,1.973,1.514,3.757t1.352,3.707q.432-1.122.919-2.293t1.081-2.612l1.352-3.28q.755-1.838,1.838-4.237"
     id="path423" />
  <path
     d="M453.3,472.948a7.935,7.935,0,0,0,.648,3.2,8.224,8.224,0,0,0,1.785,2.614,8.393,8.393,0,0,0,2.648,1.76,8.273,8.273,0,0,0,3.244.638,8.468,8.468,0,0,0,3.271-.638,8.356,8.356,0,0,0,2.677-1.76,8.256,8.256,0,0,0,1.785-2.614,7.919,7.919,0,0,0,.648-3.2,8.226,8.226,0,0,0-2.433-5.865,8.285,8.285,0,0,0-2.677-1.758,8.415,8.415,0,0,0-3.271-.64,8.221,8.221,0,0,0-3.244.64,8.32,8.32,0,0,0-2.648,1.758,8.226,8.226,0,0,0-2.433,5.865m-2.975,0a10.794,10.794,0,0,1,.892-4.344,11.234,11.234,0,0,1,2.433-3.572,11.47,11.47,0,0,1,3.623-2.4,11.747,11.747,0,0,1,8.922,0,10.96,10.96,0,0,1,5.972,5.971,11.067,11.067,0,0,1,.866,4.344,10.873,10.873,0,0,1-.866,4.318,10.606,10.606,0,0,1-2.4,3.52,11.784,11.784,0,0,1-3.594,2.372,11.284,11.284,0,0,1-4.489.88,11.782,11.782,0,0,1-4.433-.826,10.969,10.969,0,0,1-6.029-5.839,10.866,10.866,0,0,1-.892-4.425"
     id="path425" />
  <path
     d="M504.126,465.484a9.608,9.608,0,0,0-3.11.506A8.669,8.669,0,0,0,498.4,467.4a6.765,6.765,0,0,0-1.812,2.212,6.207,6.207,0,0,0-.677,2.905V483.61h-2.973V462.286h2.543l.269,5.489a9.44,9.44,0,0,1,1.677-2.477,11.707,11.707,0,0,1,2.244-1.867,10.963,10.963,0,0,1,2.541-1.2,8.215,8.215,0,0,1,2.513-.428Z"
     id="path427" />
  <path
     d="M536.405,461.753l1.784,1.812q-2.057,1.866-3.921,3.652t-3.919,3.653l9.407,12.74H536.3l-8.056-10.77-3.516,3.2v7.569h-2.973V442.774h2.973v29.748q3.03-2.772,5.839-5.359t5.841-5.41"
     id="path429" />
  <path
     d="M569.548,464.312l-1.621,2.078a3.95,3.95,0,0,0-1.7-1.093,6.9,6.9,0,0,0-2.567-.506,4.66,4.66,0,0,0-1.164.161,3.576,3.576,0,0,0-1.134.507,3,3,0,0,0-.866.9,2.5,2.5,0,0,0-.352,1.359,2.553,2.553,0,0,0,.758,1.947,7.031,7.031,0,0,0,1.892,1.254q1.134.531,2.46,1.012a13.563,13.563,0,0,1,2.459,1.173,6.239,6.239,0,0,1,1.893,1.785,4.831,4.831,0,0,1,.758,2.8,6.132,6.132,0,0,1-1.839,4.5,7.1,7.1,0,0,1-5.244,1.839,11.8,11.8,0,0,1-3.758-.641,6.824,6.824,0,0,1-3.11-2.024c.145-.142.325-.337.541-.587s.415-.479.6-.694.333-.4.46-.56.205-.24.242-.24a1.994,1.994,0,0,0,.7.587,9.918,9.918,0,0,0,1.242.614,11.514,11.514,0,0,0,1.513.506,6.1,6.1,0,0,0,1.57.213,5.546,5.546,0,0,0,1.379-.186,4.175,4.175,0,0,0,1.349-.614,3.337,3.337,0,0,0,1-1.066,2.981,2.981,0,0,0,.379-1.545,2.566,2.566,0,0,0-.758-1.946,7.2,7.2,0,0,0-1.893-1.254,23.589,23.589,0,0,0-2.486-.985,12.16,12.16,0,0,1-2.489-1.147,6.133,6.133,0,0,1-1.892-1.812,5.049,5.049,0,0,1-.756-2.88,5.571,5.571,0,0,1,.594-2.691,5.746,5.746,0,0,1,1.514-1.812,5.859,5.859,0,0,1,2.083-1.042,8.477,8.477,0,0,1,2.242-.317,9.44,9.44,0,0,1,3.083.584,7.783,7.783,0,0,1,2.919,1.814"
     id="path431" />
</svg>
